<?xml version="1.0" encoding="UTF-8"?>
<svg width="239px" height="169px" viewBox="0 0 239 169" version="1.1" xmlns="http://www.w3.org/2000/svg" xmlns:xlink="http://www.w3.org/1999/xlink">
    <!-- Generator: Sketch 55 (78076) - https://sketchapp.com -->
    <title>rotate screen</title>
    <desc>Created with Sketch.</desc>
    <g id="Page-2" stroke="none" stroke-width="1" fill="none" fill-rule="evenodd">
        <g id="rotate-screen" transform="translate(-245.000000, -356.000000)">
            <g id="Group-4" transform="translate(224.000000, 356.000000)">
                <g id="rotate-screen" transform="translate(21.000000, 0.000000)">
                    <g id="ipad-with-blank-screen" fill="#FFFFFF" fill-rule="nonzero">
                        <path d="M109.0255,2.97712755 C107.083905,1.03427016 104.731534,0 102.00546,0 L9.99432734,0 C7.18558664,0 4.79103027,0.991806829 2.89162017,2.8960418 C0.990292555,4.7985697 0,7.19678763 0,9.92681701 L0,91.0772284 L0,159.073183 C0,164.699254 4.37684595,169 9.99432734,169 L102.00546,169 C104.731534,169 107.106702,167.987068 109.0255,166.105879 C110.988402,164.182226 112,161.886432 112,159.073396 L112,77.9244786 L112,9.92681701 C112,7.19678763 110.967096,4.9219054 109.0255,2.97712755 Z M62.6216025,160.648111 C59.469223,163.783963 54.5295432,163.783963 51.3791408,160.648111 C48.2287385,157.514226 48.1852422,152.643713 51.3791408,149.381554 C54.4875847,146.206149 59.5114012,146.206149 62.6216025,149.381554 C65.8137437,152.643713 65.7717852,157.514226 62.6216025,160.648111 Z M103,141.172388 C103,141.752932 102.750684,142 102.170584,142 L9.82941554,142 C9.24953027,142 9,141.752932 9,141.172388 L9,9.82761226 C9,9.24898776 9.24953027,9 9.82941554,9 L27.3185584,9 L102.170584,9 C102.750684,9 103,9.24898776 103,9.82761226 L103,141.172388 Z" id="Shape" fill-opacity="0.319329108"></path>
                        <g id="share-(1)" transform="translate(178.000000, 30.000000) rotate(-270.000000) translate(-178.000000, -30.000000) translate(159.000000, 11.000000)">
                            <path d="M37.6358708,9.61460663 L37.6370583,9.61341913 C37.6382458,9.61163788 37.6394333,9.60985663 37.6406208,9.60748163 C37.7427468,9.49170043 37.81756,9.35216925 37.8775293,9.20491931 C37.8965295,9.15979433 37.9089984,9.11704435 37.9226547,9.07132562 C37.9570926,8.95791943 37.9784678,8.84035698 37.9855928,8.71745079 C37.9891554,8.67232581 37.9962804,8.62957583 37.9950929,8.58326335 C37.9950929,8.55951336 38.0010305,8.53813837 37.999843,8.51498213 C37.9915304,8.37307594 37.9630301,8.23591975 37.9190922,8.10707606 C37.9155297,8.09341982 37.9060296,8.08273232 37.9012795,8.06907608 C37.849029,7.92716989 37.7742158,7.80129495 37.6857462,7.6861075 C37.6732774,7.67007626 37.6691211,7.64870127 37.6560584,7.63267003 L31.5338438,0.420985799 C31.0653706,-0.13120145 30.2964571,-0.141888945 29.815515,0.399017059 C29.3357604,0.939329314 29.3268541,1.82520391 29.7965148,2.37857866 L33.0966087,6.26704565 C28.274719,5.62817094 23.5347676,6.64288923 23.3109217,6.6927642 C8.67721975,9.34504425 -1.6784727,22.8587881 0.225701701,36.8172505 C0.320108851,37.5083752 0.836082519,38 1.42449438,38 C1.48743248,38 1.55037058,37.9946563 1.61449619,37.9839688 C2.2771275,37.8634376 2.72956932,37.1473754 2.62625583,36.3832195 C0.929895913,23.9501001 10.3783297,11.8720431 23.7265507,9.4519192 C23.7877075,9.43766921 28.6850042,8.38673219 33.2961106,9.11110686 L28.2034684,12.1350742 C27.6067439,12.4901366 27.3733979,13.3344487 27.6803696,14.0214171 C27.9867475,14.7095731 28.7182545,14.9761667 29.3167602,14.6252606 L37.3443367,9.85863777 C37.452994,9.79273155 37.5503699,9.71020033 37.6358708,9.61460663 Z" id="Path"></path>
                        </g>
                    </g>
                    <g id="Group-2" transform="translate(90.000000, 69.000000)">
                        <rect id="Rectangle" fill="#215EFF" x="3" y="38" width="18" height="27"></rect>
                        <g id="Group" fill="#FFFFFF" fill-rule="nonzero">
                            <path d="M121.370755,-22.3751952 C119.654523,-24.0881287 117.575195,-25 115.16554,-25 L33.8342715,-25 C31.3515453,-25 29.2349285,-24.1255668 27.5559857,-22.446685 C25.8753479,-20.7693084 25,-18.6549032 25,-16.2479542 L25,55.2988582 L25,115.247954 C25,120.208218 28.8688192,124 33.8342715,124 L115.16554,124 C117.575195,124 119.674674,123.106942 121.370755,121.448378 C123.105819,119.752377 124,117.728274 124,115.248142 L124,43.7026468 L124,-16.2479542 C124,-18.6549032 123.086987,-20.6605686 121.370755,-22.3751952 Z M79.9189022,116.942097 C77.1605701,119.685968 72.8383503,119.685968 70.0817482,116.942097 C67.3251461,114.199948 67.2870869,109.938249 70.0817482,107.083859 C72.8016366,104.30538 77.1974761,104.30538 79.9189022,107.083859 C82.7120258,109.938249 82.6753121,114.199948 79.9189022,116.942097 Z M116,99.2719501 C116,99.7826549 115.779859,100 115.267644,100 L33.7323563,100 C33.2203299,100 33,99.7826549 33,99.2719501 L33,-16.2719501 C33,-16.7809657 33.2203299,-17 33.7323563,-17 L49.1748973,-17 L115.267644,-17 C115.779859,-17 116,-16.7809657 116,-16.2719501 L116,99.2719501 Z" id="Shape" transform="translate(74.500000, 49.500000) rotate(-270.000000) translate(-74.500000, -49.500000) "></path>
                        </g>
                    </g>
                </g>
            </g>
        </g>
    </g>
</svg>