<?xml version="1.0" encoding="UTF-8"?>
<svg width="6px" height="21px" viewBox="0 0 6 21" version="1.1" xmlns="http://www.w3.org/2000/svg" xmlns:xlink="http://www.w3.org/1999/xlink">
    <!-- Generator: Sketch 54.1 (76490) - https://sketchapp.com -->
    <title>Options</title>
    <desc>Created with Sketch.</desc>
    <g id="Page-1" stroke="none" stroke-width="1" fill="none" fill-rule="evenodd" opacity="0.541317894">
        <g id="white-copy" transform="translate(-926.000000, -297.000000)" fill="#000000" fill-rule="nonzero">
            <g id="Group-10" transform="translate(73.000000, 297.000000)">
                <g id="more" transform="translate(856.000000, 10.500000) rotate(-90.000000) translate(-856.000000, -10.500000) translate(845.500000, 7.500000)">
                    <path d="M21,3 C21,4.65692041 19.6569204,6 18,6 C16.3430796,6 15,4.65692041 15,3 C15,1.34332806 16.3430796,0 18,0 C19.6569204,0 21,1.34332806 21,3 L21,3 Z" id="Path"></path>
                    <path d="M14,3 C14,4.65692041 12.6569204,6 11,6 C9.34332811,6 8,4.65692041 8,3 C8,1.34332806 9.34332811,0 11,0 C12.6569204,0 14,1.34332806 14,3 Z" id="Path"></path>
                    <path d="M6,3 C6,4.65692041 4.65692041,6 3,6 C1.34307959,6 1.13686838e-13,4.65692041 1.13686838e-13,3 C1.13686838e-13,1.34332806 1.34307959,0 3,0 C4.65692041,0 6,1.34332806 6,3 Z" id="Path"></path>
                </g>
            </g>
        </g>
    </g>
</svg>