<?xml version="1.0" encoding="UTF-8"?>
<svg width="20px" height="16px" viewBox="0 0 20 16" version="1.1" xmlns="http://www.w3.org/2000/svg" xmlns:xlink="http://www.w3.org/1999/xlink">
    <!-- Generator: Sketch 55.2 (78181) - https://sketchapp.com -->
    <title>Rate</title>
    <desc>Created with Sketch.</desc>
    <g id="Page-2" stroke="none" stroke-width="1" fill="none" fill-rule="evenodd" opacity="0.73">
        <g id="icon-config.-rate" fill="#FFFFFF" fill-rule="nonzero">
            <g id="Group">
                <g id="Shape">
                    <path d="M17.4857143,6.65109244 L17.4857143,0.727272727 C17.4857143,0.325611091 17.1787095,0 16.8,0 C16.4212905,0 16.1142857,0.325611091 16.1142857,0.727272727 L16.1142857,6.65117436 C15.1242553,6.96443353 14.4,7.93819044 14.4,9.09090909 C14.4,10.2416612 15.1229181,11.2171827 16.1142857,11.5307257 L16.1142857,15.2727273 C16.1142857,15.6743889 16.4212905,16 16.8,16 C17.1787095,16 17.4857143,15.6743889 17.4857143,15.2727273 L17.4857143,11.5306438 C18.4757447,11.2173847 19.2,10.2436277 19.2,9.09090909 C19.2,7.94015702 18.4770819,6.96463553 17.4857143,6.65109244 L17.4857143,6.65109244 Z M10.2857143,1.19654698 L10.2857143,0.727272727 C10.2857143,0.325611091 9.97870954,0 9.6,0 C9.22129046,0 8.91428571,0.325611091 8.91428571,0.727272727 L8.91428571,1.19662891 C7.92425534,1.50988807 7.2,2.48364498 7.2,3.63636364 C7.2,4.78711571 7.92291809,5.7626372 8.91428571,6.07618029 L8.91428571,15.2727273 C8.91428571,15.6743889 9.22129046,16 9.6,16 C9.97870954,16 10.2857143,15.6743889 10.2857143,15.2727273 L10.2857143,6.07609836 C11.2757447,5.7628392 12,4.78908229 12,3.63636364 C12,2.48561156 11.2770819,1.51009007 10.2857143,1.19654698 Z M3.08571429,9.92381971 L3.08571429,0.727272727 C3.08571429,0.325611091 2.77870954,0 2.4,0 C2.02129046,0 1.71428571,0.325611091 1.71428571,0.727272727 L1.71428571,9.92390164 C0.724255337,10.2371608 0,11.2109177 0,12.3636364 C0,13.5143884 0.722918091,14.4899099 1.71428571,14.803453 L1.71428571,15.2727273 C1.71428571,15.6743889 2.02129046,16 2.4,16 C2.77870954,16 3.08571429,15.6743889 3.08571429,15.2727273 L3.08571429,14.8033711 C4.07574466,14.4901119 4.8,13.516355 4.8,12.3636364 C4.8,11.2128843 4.07708191,10.2373628 3.08571429,9.92381971 L3.08571429,9.92381971 Z"></path>
                </g>
            </g>
        </g>
    </g>
</svg>