<?xml version="1.0" encoding="UTF-8"?>
<svg width="24px" height="24px" viewBox="0 0 24 24" version="1.1" xmlns="http://www.w3.org/2000/svg" xmlns:xlink="http://www.w3.org/1999/xlink">
    <!-- Generator: Sketch 55.2 (78181) - https://sketchapp.com -->
    <title>Crop</title>
    <desc>Created with Sketch.</desc>
    <g id="Page-2" stroke="none" stroke-width="1" fill="none" fill-rule="evenodd" opacity="0.3">
        <g id="2.1-–-rates-(Select)-Renewals-rates-choosen-OPTION-2" transform="translate(-946.000000, -732.000000)">
            <g id="Group-35" transform="translate(944.000000, 729.000000)">
                <rect id="Rectangle" fill="#FFFFFF" opacity="0" x="0" y="0" width="28" height="30"></rect>
                <g id="noun_Crop_860202" transform="translate(2.000000, 3.000000)" fill="#000000" fill-rule="nonzero">
                    <path d="M22.8059701,17.1044776 L19.4925373,17.1044776 L19.4925373,4.50746269 L6.89552239,4.50746269 L6.89552239,1.19402985 C6.89552239,0.537313433 6.35820896,0 5.70149254,0 C5.04477612,0 4.50746269,0.537313433 4.50746269,1.19402985 L4.50746269,4.50746269 L1.19402985,4.50746269 C0.537313433,4.50746269 0,5.04477612 0,5.70149254 C0,6.35820896 0.537313433,6.89552239 1.19402985,6.89552239 L4.50746269,6.89552239 L4.50746269,19.4925373 L17.1044776,19.4925373 L17.1044776,22.8059701 C17.1044776,23.4626866 17.641791,24 18.2985075,24 C18.9552239,24 19.4925373,23.4626866 19.4925373,22.8059701 L19.4925373,19.4925373 L22.8059701,19.4925373 C23.4626866,19.4925373 24,18.9552239 24,18.2985075 C24,17.641791 23.4626866,17.1044776 22.8059701,17.1044776 Z M17.1044776,6.89552239 L17.1044776,17.1044776 L6.89552239,17.1044776 L6.89552239,6.89552239 L17.1044776,6.89552239 Z" id="Shape"></path>
                </g>
            </g>
        </g>
    </g>
</svg>