<?xml version="1.0" encoding="UTF-8"?>
<svg width="20px" height="20px" viewBox="0 0 20 20" version="1.1" xmlns="http://www.w3.org/2000/svg" xmlns:xlink="http://www.w3.org/1999/xlink">
    <!-- Generator: Sketch 55.2 (78181) - https://sketchapp.com -->
    <desc>Created with Sketch.</desc>
    <g id="Page-1" stroke="none" stroke-width="1" fill="none" fill-rule="evenodd">
        <g id="4.4b-–-Library-[BY-SEARCH]" transform="translate(-947.000000, -457.000000)">
            <g id="Cross-Copy" transform="translate(948.000000, 458.000000)">
                <path d="M13.3354037,4.66457734 C13.115942,4.44514089 12.7639752,4.44514089 12.5445135,4.66457734 L9,8.20868315 L5.45548654,4.66457734 C5.23602484,4.44514089 4.88405797,4.44514089 4.66459627,4.66457734 C4.44513458,4.8840138 4.44513458,5.2359402 4.66459627,5.45537665 L8.20910973,8.99948246 L4.66459627,12.5435883 C4.44513458,12.7630247 4.44513458,13.1149511 4.66459627,13.3343876 C4.77225673,13.4420357 4.91718427,13.5 5.05797101,13.5 C5.19875776,13.5 5.3436853,13.446176 5.45134576,13.3343876 L8.99585921,9.79028177 L12.5403727,13.3343876 C12.6480331,13.4420357 12.7929607,13.5 12.9337474,13.5 C13.0786749,13.5 13.2194617,13.446176 13.3271222,13.3343876 C13.5465839,13.1149511 13.5465839,12.7630247 13.3271222,12.5435883 L9.79089027,8.99948246 L13.3354037,5.45537665 C13.5548654,5.2359402 13.5548654,4.8840138 13.3354037,4.66457734 Z" id="Path" fill="#FF4D4D" fill-rule="nonzero"></path>
                <rect id="Rectangle" stroke="#FF4D4D" stroke-width="0.5" x="-0.25" y="-0.25" width="18.5" height="18.5" rx="2"></rect>
            </g>
        </g>
    </g>
</svg>