<?xml version="1.0" encoding="UTF-8"?>
<svg width="16px" height="17px" viewBox="0 0 16 17" version="1.1" xmlns="http://www.w3.org/2000/svg" xmlns:xlink="http://www.w3.org/1999/xlink">
    <!-- Generator: Sketch 54.1 (76490) - https://sketchapp.com -->
    <title>Delete</title>
    <desc>Created with Sketch.</desc>
    <g id="Page-1" stroke="none" stroke-width="1" fill="none" fill-rule="evenodd" opacity="0.5">
        <g id="2.2b-–-System-Admin-–-Images-–-Categories-tab" transform="translate(-945.000000, -224.000000)" fill="#000000" fill-rule="nonzero">
            <g id="noun_delate_1571367" transform="translate(945.000000, 224.000000)">
                <g id="Group">
                    <path d="M15.4701299,1.92353078 L11.3433766,1.92353078 L11.3433766,1.33890825 C11.3428282,0.982554879 11.1981156,0.641071738 10.9411919,0.389859793 C10.6842682,0.138647849 10.3362661,-0.00163007504 9.97402597,9.07900735e-17 L5.96987013,9.07900735e-17 C5.21866355,0.00112565594 4.60997543,0.599916405 4.60883117,1.33890825 L4.60883117,1.92353078 L0.378181818,1.92353078 C0.169317767,1.92353078 -1.76482121e-16,2.09009541 -2.0206059e-16,2.2955633 C-2.2763906e-16,2.50103119 0.169317767,2.66759582 0.378181818,2.66759582 L1.9761039,2.66759582 L1.9761039,14.6216957 C1.9761039,15.7506401 2.9064213,16.6658304 4.05402597,16.6658304 L11.9501299,16.6658304 C13.0977345,16.6658304 14.0280519,15.7506401 14.0280519,14.6216957 L14.0280519,2.66963995 L15.4618182,2.66963995 C15.6706822,2.66963995 15.84,2.50307532 15.84,2.29760743 C15.84,2.09213955 15.6706822,1.92557491 15.4618182,1.92557491 L15.4701299,1.92353078 Z M5.36519481,1.33890825 C5.36633492,1.01085111 5.63639056,0.745186613 5.96987013,0.744065041 L9.97402597,0.744065041 C10.3075055,0.745186613 10.5775612,1.01085111 10.5787013,1.33890825 L10.5787013,1.92353078 L5.36519481,1.92353078 L5.36519481,1.33890825 Z M13.28,14.625784 C13.2788558,15.3444548 12.6869134,15.9267722 11.9563636,15.9278978 L4.06025974,15.9278978 C3.32971002,15.9267722 2.73776754,15.3444548 2.73662338,14.625784 L2.73662338,2.70030197 L13.28,2.70030197 L13.28,14.625784 Z" id="Shape"></path>
                    <path d="M7.91272727,14.8322416 C8.12159132,14.8322416 8.29090909,14.6656769 8.29090909,14.4602091 L8.29090909,4.26406504 C8.29090909,4.05859715 8.12159132,3.89203252 7.91272727,3.89203252 C7.70386322,3.89203252 7.53454545,4.05859715 7.53454545,4.26406504 L7.53454545,14.4602091 C7.53454545,14.6656769 7.70386322,14.8322416 7.91272727,14.8322416 L7.91272727,14.8322416 Z" id="Path"></path>
                    <path d="M5.33194805,13.716144 C5.5408121,13.716144 5.71012987,13.5495794 5.71012987,13.3441115 L5.71012987,5.37198606 C5.71012987,5.16651818 5.5408121,4.99995354 5.33194805,4.99995354 C5.123084,4.99995354 4.95376623,5.16651818 4.95376623,5.37198606 L4.95376623,13.3441115 C4.95376623,13.5495794 5.123084,13.716144 5.33194805,13.716144 L5.33194805,13.716144 Z" id="Path"></path>
                    <path d="M10.5537662,13.716144 C10.7626303,13.716144 10.9319481,13.5495794 10.9319481,13.3441115 L10.9319481,5.37198606 C10.9319481,5.16651818 10.7626303,4.99995354 10.5537662,4.99995354 C10.3449022,4.99995354 10.1755844,5.16651818 10.1755844,5.37198606 L10.1755844,13.3441115 C10.1755844,13.5495794 10.3449022,13.716144 10.5537662,13.716144 L10.5537662,13.716144 Z" id="Path"></path>
                </g>
            </g>
        </g>
    </g>
</svg>