<?xml version="1.0" encoding="UTF-8"?>
<svg width="14px" height="16px" viewBox="0 0 14 16" version="1.1" xmlns="http://www.w3.org/2000/svg" xmlns:xlink="http://www.w3.org/1999/xlink">
    <!-- Generator: Sketch 55.2 (78181) - https://sketchapp.com -->
    <desc>Created with Sketch.</desc>
    <g id="Page-2" stroke="none" stroke-width="1" fill="none" fill-rule="evenodd" opacity="0.7">
        <g id="doc" transform="translate(-1.000000, 0.000000)">
            <g id="noun_doc_801798" transform="translate(1.000000, 0.000000)" fill="#636363" fill-rule="nonzero">
                <g id="Group">
                    <g id="a-link">
                        <g id="a">
                            <path d="M13.7894737,15.8947368 L13.7894737,0.105263158 L0.105263158,0.105263158 L0.105263158,15.8947368 L13.7894737,15.8947368 L13.7894737,15.8947368 Z M12.7368421,14.8421053 L1.15789474,14.8421053 L1.15789474,1.15789474 L12.7368421,1.15789474 L12.7368421,14.8421053 L12.7368421,14.8421053 Z M2.21052632,8.52631579 L2.21052632,9.57894737 L11.6842105,9.57894737 L11.6842105,8.52631579 L2.21052632,8.52631579 L2.21052632,8.52631579 Z M2.21052632,12.7368421 L2.21052632,13.7894737 L11.6842105,13.7894737 L11.6842105,12.7368421 L2.21052632,12.7368421 L2.21052632,12.7368421 Z M2.21052632,10.6315789 L2.21052632,11.6842105 L11.6842105,11.6842105 L11.6842105,10.6315789 L2.21052632,10.6315789 L2.21052632,10.6315789 Z M5.36842105,5.36842105 L5.36842105,2.21052632 L2.21052632,2.21052632 L2.21052632,5.36842105 L5.36842105,5.36842105 L5.36842105,5.36842105 Z M3.26315789,4.31578947 L3.26315789,3.26315789 L4.31578947,3.26315789 L4.31578947,4.31578947 L3.26315789,4.31578947 L3.26315789,4.31578947 Z M6.42105263,2.21052632 L6.42105263,3.26315789 L11.6842105,3.26315789 L11.6842105,2.21052632 L6.42105263,2.21052632 L6.42105263,2.21052632 Z M11.6842105,7.47368421 L11.6842105,6.42105263 L2.21052632,6.42105263 L2.21052632,7.47368421 L11.6842105,7.47368421 L11.6842105,7.47368421 Z M6.42105263,4.31578947 L6.42105263,5.36842105 L11.6842105,5.36842105 L11.6842105,4.31578947 L6.42105263,4.31578947 Z" id="Shape"></path>
                        </g>
                    </g>
                </g>
            </g>
            <rect id="Rectangle" fill="#D8D8D8" opacity="0" x="0" y="0" width="16" height="16"></rect>
        </g>
    </g>
</svg>