<?xml version="1.0" encoding="UTF-8"?>
<svg width="14px" height="9px" viewBox="0 0 14 9" version="1.1" xmlns="http://www.w3.org/2000/svg" xmlns:xlink="http://www.w3.org/1999/xlink">
    <!-- Generator: Sketch 54.1 (76490) - https://sketchapp.com -->
    <desc>Created with Sketch.</desc>
    <g id="Page-1" stroke="none" stroke-width="1" fill="none" fill-rule="evenodd" opacity="0.74">
        <g id="2.2b-–-System-Admin-–-Images-–-Categories-tab" transform="translate(-248.000000, -341.000000)" fill="#636363" fill-rule="nonzero">
            <path d="M251.324547,346.682759 L256.971592,352.420464 C257.42236,352.877969 258.168012,352.892416 258.637051,352.452732 C259.10609,352.013049 259.120902,351.285733 258.670133,350.828227 C258.369621,350.523224 256.749524,348.876028 253.809842,345.886641 C256.749524,342.897247 258.369621,341.250048 258.670133,340.945044 C259.120902,340.487539 259.10609,339.760223 258.637051,339.32054 C258.168012,338.880856 257.42236,338.895303 256.971592,339.352808 L251.324547,345.090513 C251.10452,345.315877 250.987756,345.618736 251.001018,345.929673 C251.010567,346.2109 251.125703,346.478904 251.324547,346.682759 Z" id="Path-Copy-5" transform="translate(254.999377, 345.886636) rotate(-90.000000) translate(-254.999377, -345.886636) "></path>
        </g>
    </g>
</svg>