<?xml version="1.0" encoding="UTF-8"?>
<svg width="16px" height="16px" viewBox="0 0 16 16" version="1.1" xmlns="http://www.w3.org/2000/svg" xmlns:xlink="http://www.w3.org/1999/xlink">
    <!-- Generator: Sketch 55.2 (78181) - https://sketchapp.com -->
    <desc>Created with Sketch.</desc>
    <g id="Page-1" stroke="none" stroke-width="1" fill="none" fill-rule="evenodd" opacity="0.399948847">
        <g id="noun_duplicate_1393151-copy" fill="#000000" fill-rule="nonzero">
            <g id="Group" transform="translate(-0.000000, 0.000000)">
                <path d="M14.2564103,0.102564103 L5.66153846,0.102564103 C4.75522503,0.102564103 4.02051282,0.837276308 4.02051282,1.74358974 L4.02051282,10.3384615 C4.02051282,10.7736886 4.1934061,11.1910899 4.5011581,11.4988419 C4.80891011,11.8065939 5.2263114,11.9794872 5.66153846,11.9794872 L14.2564103,11.9794872 C15.1627237,11.9794872 15.8974359,11.244775 15.8974359,10.3384615 L15.8974359,1.74358974 C15.8974359,0.837276308 15.1627237,0.102564103 14.2564103,0.102564103 Z M5.66153846,10.3384615 L5.66153846,1.74358974 L14.2564103,1.74358974 L14.2564103,10.3384615 L5.66153846,10.3384615 Z" id="Shape"></path>
                <path d="M1.74358974,15.8974359 L10.3384615,15.8974359 C10.7736886,15.8974359 11.1910899,15.7245426 11.4988419,15.4167906 C11.8065939,15.1090386 11.9794872,14.6916373 11.9794872,14.2564103 L11.9794872,13.2307692 C11.9794872,12.7776125 11.6121311,12.4102564 11.1589744,12.4102564 C10.7058176,12.4102564 10.3384615,12.7776125 10.3384615,13.2307692 L10.3384615,14.2564103 L1.74358974,14.2564103 L1.74358974,5.66153846 L2.81025641,5.66153846 C3.26341313,5.66153846 3.63076923,5.29418236 3.63076923,4.84102564 C3.63076923,4.38786892 3.26341313,4.02051282 2.81025641,4.02051282 L1.74358974,4.02051282 C0.837276308,4.02051282 0.102564103,4.75522503 0.102564103,5.66153846 L0.102564103,14.2564103 C0.102564103,15.1627237 0.837276308,15.8974359 1.74358974,15.8974359 Z" id="Path"></path>
            </g>
        </g>
    </g>
</svg>