<?xml version="1.0" encoding="UTF-8"?>
<svg width="10px" height="10px" viewBox="0 0 10 10" version="1.1" xmlns="http://www.w3.org/2000/svg" xmlns:xlink="http://www.w3.org/1999/xlink">
    <!-- Generator: Sketch 55.2 (78181) - https://sketchapp.com -->
    <title>Icon-take a tour</title>
    <desc>Created with Sketch.</desc>
    <g id="Page-1" stroke="none" stroke-width="1" fill="none" fill-rule="evenodd">
        <g id="Icon-take-a-tour" transform="translate(-2.000000, -2.000000)">
            <rect id="Rectangle-Copy-32" fill="#D8D8D8" opacity="0" x="0" y="0" width="14" height="14"></rect>
            <g id="noun_guide_1523076-copy" opacity="0.6" transform="translate(2.000000, 2.000000)" fill="#000000" fill-rule="nonzero">
                <g id="Group">
                    <path d="M5.10869565,0.0398010989 C7.80622717,0.0398010989 10,2.25768352 10,4.98485714 C10,7.71203297 7.80622717,9.92991209 5.10869565,9.92991209 C3.02431739,9.92991209 1.24333043,8.60338462 0.5400815,6.7430989 L1.24320652,6.7430989 C1.90661304,8.23287912 3.38462826,9.26713187 5.10869565,9.26713187 C7.45376522,9.26713187 9.34782609,7.35569231 9.34782609,4.98485714 C9.34782609,2.61402088 7.45376522,0.699141758 5.10869565,0.699141758 C3.30013478,0.699141758 1.76191304,1.83745604 1.15149457,3.44639451 L0.4619565,3.44639451 C1.10312826,1.47016593 2.94216739,0.0398010989 5.10869565,0.0398010989 L5.10869565,0.0398010989 Z M3.93682065,2.67372967 L5.89334239,4.87153846 C6.00093696,4.99147253 6.00093696,5.19459341 5.89334239,5.31452747 L3.93682065,7.51232967 L3.4544837,7.06932967 L4.921875,5.42441758 L2.17391307e-08,5.42441758 L2.17391307e-08,4.76507692 L4.921875,4.76507692 L3.4544837,3.11672418 L3.93682065,2.67372967 Z" id="Shape"></path>
                </g>
            </g>
        </g>
    </g>
</svg>