<?xml version="1.0" encoding="UTF-8"?>
<svg width="13px" height="13px" viewBox="0 0 13 13" version="1.1" xmlns="http://www.w3.org/2000/svg" xmlns:xlink="http://www.w3.org/1999/xlink">
    <!-- Generator: Sketch 55.2 (78181) - https://sketchapp.com -->
    <title>Icon-tip</title>
    <desc>Created with Sketch.</desc>
    <g id="Page-1" stroke="none" stroke-width="1" fill="none" fill-rule="evenodd">
        <g id="Icon-tip" transform="translate(-1.000000, 0.000000)">
            <g id="noun_Light_447425-Copy" opacity="0.6" transform="translate(1.000000, 0.000000)" fill="#000000" fill-rule="nonzero">
                <path d="M6.97512246,13 L6.00955799,13 C5.80779824,13 5.62044991,12.8628692 5.57721568,12.6845992 L5.47633581,12.3417722 C5.1736962,12.3006329 4.94311364,12.0537975 4.94311364,11.7521097 L4.94311364,11.3681435 C4.94311364,11.1761603 5.10163915,10.9978903 5.33222171,10.9978903 L7.65245873,10.9978903 C7.85421847,11.0116034 8.02715539,11.1624473 8.02715539,11.3681435 L8.02715539,11.7521097 C8.02715539,12.0537975 7.79657283,12.3006329 7.49393322,12.3417722 L7.39305335,12.6845992 C7.33540771,12.8628692 7.16247079,13 6.97512246,13 Z M6.49954593,1.97468354 C6.70130567,1.97468354 6.87424259,1.82383966 6.87424259,1.61814346 L6.87424259,0.356540084 C6.87424259,0.164556962 6.71571708,0 6.49954593,0 C6.29778619,0 6.12484927,0.150843882 6.12484927,0.356540084 L6.12484927,1.61814346 C6.12484927,1.82383966 6.29778619,1.97468354 6.49954593,1.97468354 Z M0.374696661,6.54113924 L1.70054638,6.54113924 C1.88789471,6.54113924 2.07524305,6.39029536 2.07524305,6.18459916 C2.07524305,5.97890295 1.91671753,5.82805907 1.70054638,5.82805907 L0.374696661,5.82805907 C0.17293692,5.82805907 0,5.97890295 0,6.18459916 C0,6.39029536 0.15852551,6.54113924 0.374696661,6.54113924 Z M12.6243952,5.84177215 L11.2985455,5.84177215 C11.0967857,5.84177215 10.9238488,5.99261603 10.9238488,6.19831224 C10.9238488,6.40400844 11.0823743,6.55485232 11.2985455,6.55485232 L12.6243952,6.55485232 C12.8261549,6.55485232 12.9990919,6.40400844 12.9990919,6.19831224 C13.0135033,5.99261603 12.8549778,5.84177215 12.6243952,5.84177215 Z M3.35785854,9.17405063 C3.21374444,9.03691983 2.98316188,9.03691983 2.83904778,9.17405063 L1.88789471,10.0654008 C1.7293692,10.2162447 1.7293692,10.435654 1.88789471,10.5727848 C1.95995176,10.6413502 2.04642023,10.6824895 2.1473001,10.6824895 C2.24817997,10.6824895 2.33464843,10.6413502 2.40670548,10.5727848 L3.34344713,9.6814346 C3.50197264,9.5443038 3.50197264,9.32489451 3.35785854,9.17405063 Z M9.91505011,3.3185654 C10.01593,3.3185654 10.1023984,3.27742616 10.1744555,3.20886076 L11.1111971,2.31751055 C11.2697226,2.16666667 11.2697226,1.94725738 11.1111971,1.81012658 C10.9526716,1.67299578 10.7220891,1.6592827 10.577975,1.81012658 L9.64123331,2.70147679 C9.4827078,2.85232068 9.4827078,3.07172996 9.64123331,3.20886076 C9.71329036,3.27742616 9.81417023,3.3185654 9.91505011,3.3185654 Z M2.82463637,3.20886076 C2.89669342,3.27742616 2.98316188,3.3185654 3.08404175,3.3185654 C3.18492162,3.3185654 3.27139008,3.27742616 3.34344713,3.20886076 C3.50197264,3.05801688 3.50197264,2.83860759 3.34344713,2.70147679 L2.40670548,1.81012658 C2.24817997,1.6592827 2.01759741,1.6592827 1.8734833,1.81012658 C1.7293692,1.96097046 1.71495779,2.18037975 1.8734833,2.31751055 L2.82463637,3.20886076 Z M10.1744555,9.17405063 C10.01593,9.02320675 9.78534741,9.02320675 9.64123331,9.17405063 C9.4827078,9.32489451 9.4827078,9.5443038 9.64123331,9.6814346 L10.577975,10.5727848 C10.650032,10.6413502 10.7365005,10.6824895 10.8373803,10.6824895 C10.9382602,10.6824895 11.0247287,10.6413502 11.0967857,10.5727848 C11.2553112,10.4219409 11.2553112,10.2025316 11.0967857,10.0654008 L10.1744555,9.17405063 Z M2.98316188,6.26687764 C2.96875047,4.42932489 4.52518275,2.92088608 6.44190029,2.907173 L6.47072311,2.907173 C8.40185205,2.907173 9.98710716,4.38818565 9.98710716,6.2257384 C9.98710716,7.07594937 9.6268219,7.92616034 9.00713127,8.52953586 C8.64684602,8.88607595 8.41626346,9.32489451 8.34420641,9.80485232 C8.27214936,10.2162447 7.8974527,10.5316456 7.45069899,10.5316456 L5.51957004,10.5316456 C5.07281633,10.5316456 4.69811967,10.2299578 4.62606262,9.80485232 C4.55400557,9.32489451 4.3090116,8.87236287 3.96313776,8.52953586 C3.34344713,7.91244726 2.99757329,7.11708861 2.98316188,6.26687764 Z M3.76137802,6.26687764 C3.77578943,6.92510549 4.04960622,7.54219409 4.52518275,8.03586498 C4.98634787,8.48839662 5.28898748,9.07805907 5.38986735,9.70886076 C5.40427876,9.77742616 5.4619244,9.8185654 5.51957004,9.8185654 L6.12484927,9.8185654 L6.12484927,7.66561181 L5.3178103,6.91139241 C5.1736962,6.7742616 5.1736962,6.55485232 5.3178103,6.41772152 L5.3178103,6.41772152 C5.4619244,6.28059072 5.69250696,6.28059072 5.83662106,6.41772152 L6.48513452,7.03481013 L7.13364797,6.41772152 C7.27776207,6.28059072 7.50834463,6.28059072 7.65245873,6.41772152 L7.65245873,6.41772152 C7.79657283,6.55485232 7.79657283,6.7742616 7.65245873,6.91139241 L6.85983118,7.66561181 L6.85983118,9.80485232 L7.4651104,9.80485232 C7.53716745,9.80485232 7.59481309,9.75 7.59481309,9.69514768 C7.69569296,9.06434599 7.99833257,8.48839662 8.4739091,8.0221519 C8.96389704,7.55590717 9.23771383,6.89767932 9.23771383,6.2257384 C9.23771383,4.79957806 8.01274398,3.63396624 6.49954593,3.63396624 L6.48513452,3.63396624 C4.95752505,3.66139241 3.74696661,4.82700422 3.76137802,6.26687764 Z" id="Shape"></path>
            </g>
            <rect id="Rectangle-Copy-33" fill="#D8D8D8" opacity="0" x="0" y="0" width="14" height="14"></rect>
        </g>
    </g>
</svg>