<?xml version="1.0" encoding="UTF-8"?>
<svg width="13px" height="13px" viewBox="0 0 13 13" version="1.1" xmlns="http://www.w3.org/2000/svg" xmlns:xlink="http://www.w3.org/1999/xlink">
    <!-- Generator: Sketch 55.2 (78181) - https://sketchapp.com -->
    <title>Icon-logout</title>
    <desc>Created with Sketch.</desc>
    <g id="Page-1" stroke="none" stroke-width="1" fill="none" fill-rule="evenodd">
        <g id="Icon-logout" transform="translate(-1.000000, -1.000000)">
            <g id="noun_off_2191010-copy" opacity="0.402878534" transform="translate(7.500000, 7.500000) scale(-1, 1) translate(-7.500000, -7.500000) translate(1.000000, 1.000000)" fill="#000000">
                <g id="Group" transform="translate(0.433333, 0.000000)">
                    <path d="M6.7356147,0.595070423 L6.7356147,6.5915493 C6.7356147,7.36971831 5.39771863,7.36971831 5.39771863,6.5915493 L5.39771863,0.595070423 C5.39771863,-0.183098592 6.7356147,-0.183098592 6.7356147,0.595070423 Z" id="Path"></path>
                    <path d="M10.7493029,7.04929577 C10.7493029,5.08098592 9.59594423,3.47887324 7.84283904,2.74647887 C7.15082383,2.47183099 7.6121673,1.19014085 8.35031686,1.51056338 C10.6108999,2.47183099 12.087199,4.53169014 12.087199,7.04929577 C12.087199,10.3450704 9.41140684,13 6.04359949,13 C2.72192649,13 -3.46944695e-17,10.2992958 0.0461343473,7.00352113 C0.0461343473,4.48591549 1.56856781,2.42605634 3.78301648,1.51056338 C4.56730038,1.19014085 5.02864385,2.47183099 4.2904943,2.74647887 C2.58352345,3.47887324 1.38403042,5.08098592 1.38403042,7.04929577 C1.38403042,9.61267606 3.50621039,11.6725352 6.08973384,11.6725352 C8.62712294,11.6725352 10.7493029,9.61267606 10.7493029,7.04929577 Z" id="Path"></path>
                </g>
            </g>
            <rect id="Rectangle-Copy-34" fill="#D8D8D8" opacity="0" x="0" y="0" width="14" height="14"></rect>
        </g>
    </g>
</svg>