<?xml version="1.0" encoding="UTF-8"?>
<svg width="17px" height="16px" viewBox="0 0 17 16" version="1.1" xmlns="http://www.w3.org/2000/svg" xmlns:xlink="http://www.w3.org/1999/xlink">
    <!-- Generator: Sketch 55.2 (78181) - https://sketchapp.com -->
    <title>noun_Refresh_2620658</title>
    <desc>Created with Sketch.</desc>
    <g id="Page-2" stroke="none" stroke-width="1" fill="none" fill-rule="evenodd" opacity="0.7">
        <g id="3.2-reporting-opt-3" transform="translate(-938.000000, -247.000000)" fill="#636363">
            <g id="noun_Refresh_2620658" transform="translate(938.000000, 247.000000)">
                <path d="M8.22153846,0 C10.4861538,0 12.5046154,0.935384615 13.9815385,2.41230769 L15.9015385,1.32923077 L15.9015385,6.64615385 L11.2738462,3.98769231 L12.8,3.10153846 C11.6184615,1.96923077 9.99384615,1.32923077 8.22153846,1.32923077 C4.57846154,1.32923077 1.62461538,4.23384615 1.52615385,7.87692308 L0.246153846,7.87692308 C0.344615385,3.49538462 3.88923077,0 8.22153846,0 Z M0.344615385,8.71384615 L4.92307692,11.7661538 L3.29846154,12.5538462 C4.52923077,13.8830769 6.30153846,14.72 8.22153846,14.72 C11.9138462,14.72 14.9169231,11.7169231 14.9169231,8.02461538 L14.9169231,7.82769231 L16.2461538,7.82769231 C16.2461538,7.87692308 16.2461538,7.97538462 16.2461538,8.02461538 C16.2461538,12.4061538 12.6523077,16 8.22153846,16 C5.76,16 3.59384615,14.8676923 2.11692308,13.1446154 L0,14.1784615 L0.344615385,8.71384615 Z" id="Shape"></path>
            </g>
        </g>
    </g>
</svg>