<?xml version="1.0" encoding="UTF-8"?>
<svg width="7px" height="12px" viewBox="0 0 7 12" version="1.1" xmlns="http://www.w3.org/2000/svg" xmlns:xlink="http://www.w3.org/1999/xlink">
    <!-- Generator: Sketch 54.1 (76490) - https://sketchapp.com -->
    <desc>Created with Sketch.</desc>
    <g id="Page-1" stroke="none" stroke-width="1" fill="none" fill-rule="evenodd">
        <g id="4.4c–-User-–-Library-–-Default-Overlay-option-2-Copy" transform="translate(-881.000000, -535.000000)" fill="#636363" fill-rule="nonzero">
            <g id="Group-5" transform="translate(117.000000, 136.000000)">
                <g id="Group-8" transform="translate(28.000000, 38.000000)">
                    <g id="blake-barlow-1499548-unsplash" transform="translate(277.000000, 98.000000)">
                        <g id="Group-4" transform="translate(-0.000000, 0.000000)">
                            <path d="M459.284023,269.247217 L464.225957,273.814552 C464.620441,274.178736 465.272988,274.190236 465.683461,273.840238 C466.093934,273.490241 466.106896,272.911282 465.712412,272.547098 C465.449423,272.304309 464.031617,270.993106 461.458994,268.61349 C464.031617,266.23387 465.449423,264.922665 465.712412,264.679876 C466.106896,264.315691 466.093934,263.736733 465.683461,263.386735 C465.272988,263.036738 464.620441,263.048238 464.225957,263.412422 L459.284023,267.979756 C459.09147,268.159151 458.989285,268.400233 459.000891,268.647746 C459.009248,268.871608 459.110008,269.084945 459.284023,269.247217 Z" id="left-arrow" transform="translate(462.500000, 268.613487) scale(-1, 1) rotate(-180.000000) translate(-462.500000, -268.613487) "></path>
                        </g>
                    </g>
                </g>
            </g>
        </g>
    </g>
</svg>