<?xml version="1.0" encoding="UTF-8"?>
<svg width="17px" height="20px" viewBox="0 0 17 20" version="1.1" xmlns="http://www.w3.org/2000/svg" xmlns:xlink="http://www.w3.org/1999/xlink">
    <!-- Generator: Sketch 54.1 (76490) - https://sketchapp.com -->
    <title>Library</title>
    <desc>Created with Sketch.</desc>
    <g id="Symbols" stroke="none" stroke-width="1" fill="none" fill-rule="evenodd">
        <g id="library-header" fill="#215EFF" fill-rule="nonzero">
            <path d="M14.0327381,-1.0658141e-14 L2.39583333,-1.0658141e-14 C1.07324512,0.00146484421 0.00150406994,1.04524923 -3.01980663e-14,2.33333739 L-3.01980663e-14,17.3333634 C0.00200544085,17.4114886 0.0324212723,17.4863585 0.0858996949,17.5446268 C0.335242883,18.402864 1.13792055,18.9964523 2.05357143,19.000033 L3.76488095,19.000033 L3.76488095,19.6667008 C3.76488095,19.8014667 3.84827388,19.9230489 3.97612072,19.9746441 C4.10396757,20.0262392 4.25120038,19.9975933 4.34913272,19.9023783 L5.13392857,19.1380541 L5.91872442,19.9023783 C6.01665676,19.9975933 6.16372243,20.0262392 6.29156931,19.9746441 C6.41958326,19.9230489 6.50297619,19.8014667 6.50297619,19.6667008 L6.50297619,19.000033 L14.0327381,19.000033 C15.3553263,18.9985682 16.4270674,17.9547838 16.4285714,16.6666956 L16.4285714,2.33333739 C16.4270674,1.04524923 15.3553263,0.00146484421 14.0327381,-1.0658141e-14 Z M15.7440476,2.33333739 L15.7440476,13.3333565 C15.7430449,14.1250245 15.17116,14.8071546 14.375,14.9666601 L14.375,0.700033758 C15.17116,0.859539243 15.7430449,1.54166935 15.7440476,2.33333739 Z M13.6904762,0.666667825 L13.6904762,15.0000261 L12.3214286,15.0000261 L12.3214286,0.666667825 L13.6904762,0.666667825 Z M0.68452381,2.33333739 C0.685693661,1.41325116 1.45110358,0.66780716 2.39583333,0.666667825 L11.6369048,0.666667825 L11.6369048,15.0000261 L2.05357143,15.0000261 C1.93525042,15.0005144 1.81709652,15.0110938 1.70061384,15.0314389 C1.69041953,15.0314389 1.68005806,15.0337175 1.67019797,15.0356707 C1.56090146,15.0560157 1.45361035,15.0851499 1.34916032,15.1227476 L1.30537488,15.1380471 C1.20460147,15.1766214 1.10733757,15.2230082 1.01408459,15.2767192 L0.96712386,15.304063 C0.87504069,15.3600527 0.787469773,15.4228784 0.705413808,15.4920517 C0.698896157,15.4977483 0.691041503,15.501329 0.68452381,15.5070256 L0.68452381,2.33333739 Z M2.05357143,18.3333652 C1.40080045,18.3317376 0.839444126,17.8828436 0.71076165,17.2596329 C0.692545573,17.1743463 0.68368822,17.0872693 0.68452381,17.0000295 C0.68301974,16.646025 0.826743,16.3060179 1.08377365,16.055692 C1.34097145,15.805366 1.68991815,15.665229 2.05357143,15.6666939 L14.0327381,15.6666939 C14.1149612,15.6666939 14.1971842,15.6624621 14.2790731,15.6543241 C14.3058123,15.6517199 14.3315488,15.6460233 14.3581209,15.6427681 C14.4115993,15.6352811 14.4657462,15.6290962 14.5180548,15.618354 C14.5523144,15.6116808 14.5827303,15.6020779 14.6151515,15.5941026 C14.6601068,15.5830349 14.7052293,15.573432 14.7486805,15.5607367 C14.7829401,15.5499945 14.8171997,15.5363226 14.8514593,15.5239528 C14.8910668,15.5099553 14.9315098,15.4970973 14.9701146,15.4809839 C15.0088864,15.4650334 15.0386338,15.4497339 15.0703866,15.4339461 C15.1023065,15.418321 15.1447551,15.4007429 15.1806859,15.3813744 C15.2166167,15.3620059 15.2450271,15.3432884 15.2767799,15.3244081 C15.3086998,15.3053651 15.3452992,15.2846945 15.3795588,15.2630474 C15.4136512,15.2414002 15.4413932,15.2179626 15.4723104,15.1963155 C15.5030605,15.1746683 15.534479,15.151719 15.5643935,15.1276304 C15.5941409,15.1037046 15.6225513,15.0763608 15.6516302,15.0506446 C15.6807091,15.0250912 15.7084511,15.0016536 15.7351903,14.9752864 C15.7381984,14.9720312 15.7418751,14.969427 15.7450504,14.9663346 L15.7450504,15.0000261 C15.7438805,15.9201123 14.9784706,16.6655563 14.0337408,16.6666956 L3.08035714,16.6666956 C2.89134433,16.6666956 2.73809524,16.8159472 2.73809524,17.0000295 C2.73809524,17.1841119 2.89134433,17.3333634 3.08035714,17.3333634 L3.76488095,17.3333634 L3.76488095,18.3333652 L2.05357143,18.3333652 Z M5.81845238,18.8620119 L5.37591843,18.4310216 C5.24222238,18.3009758 5.02563477,18.3009758 4.89193871,18.4310216 L4.44940476,18.8620119 L4.44940476,17.3333634 L5.81845238,17.3333634 L5.81845238,18.8620119 Z M15.7440476,16.6666956 C15.7428778,17.5867818 14.9773007,18.3322258 14.0327381,18.3333652 L6.50297619,18.3333652 L6.50297619,17.3333634 L14.0327381,17.3333634 C14.6773202,17.3335262 15.2944947,17.0797823 15.7440476,16.6297489 L15.7440476,16.6666956 Z" id="Shape"></path>
            <path d="M2.5,16.4285714 C2.69723076,16.4285714 2.85714286,16.2816252 2.85714286,16.1003861 L2.85714286,5.27027027 C2.85714286,5.08903119 3.01705496,4.94208494 3.21428571,4.94208494 L5.35714286,4.94208494 C5.55437362,4.94208494 5.71428571,4.79513869 5.71428571,4.61389961 C5.71428571,4.43266054 5.55437362,4.28571429 5.35714286,4.28571429 L3.21428571,4.28571429 C2.62259348,4.28571429 2.14285714,4.72655308 2.14285714,5.27027027 L2.14285714,16.1003861 C2.14285714,16.2816252 2.30276924,16.4285714 2.5,16.4285714 Z" id="Path"></path>
        </g>
    </g>
</svg>