<svg xmlns="http://www.w3.org/2000/svg" width="6" height="10" viewBox="0 0 6 10">
    <g fill="#000" fill-rule="nonzero" opacity=".3">
        <path d="M.929.051c.512 0 .928.445.928.995s-.416.995-.928.995C.416 2.04 0 1.595 0 1.046 0 .496.416.05.929.05zM.929 3.865c.512 0 .928.445.928.995s-.416.995-.928.995C.416 5.855 0 5.409 0 4.86c0-.55.416-.995.929-.995zM.929 7.679c.512 0 .928.445.928.994 0 .55-.416.995-.928.995-.513 0-.929-.445-.929-.995 0-.549.416-.994.929-.994zM4.893.051c.513 0 .928.445.928.995s-.415.995-.928.995c-.513 0-.929-.446-.929-.995 0-.55.416-.995.929-.995zM4.893 3.865c.513 0 .928.445.928.995s-.415.995-.928.995c-.513 0-.929-.446-.929-.995 0-.55.416-.995.929-.995zM4.893 7.679c.513 0 .928.445.928.994 0 .55-.415.995-.928.995-.513 0-.929-.445-.929-.995 0-.549.416-.994.929-.994z"/>
    </g>
</svg>
