<?xml version="1.0" encoding="UTF-8"?>
<svg width="17px" height="20px" viewBox="0 0 17 20" version="1.1" xmlns="http://www.w3.org/2000/svg" xmlns:xlink="http://www.w3.org/1999/xlink">
    <!-- Generator: Sketch 54.1 (76490) - https://sketchapp.com -->
    <title>Notifications</title>
    <desc>Created with Sketch.</desc>
    <g id="Symbols" stroke="none" stroke-width="1" fill="none" fill-rule="evenodd">
        <path d="M8.46153846,20 C9.55656109,20 10.4524887,19.1 10.4524887,18 L6.47058824,18 C6.47058824,19.1 7.36651584,20 8.46153846,20 Z M14.9321267,14 L14.9321267,8.5 C14.9321267,5.4 12.841629,2.9 9.95475113,2.2 L9.95475113,1.5 C9.95475113,0.7 9.25791855,0 8.46153846,0 C7.66515837,0 6.96832579,0.7 6.96832579,1.5 L6.96832579,2.2 C4.08144796,2.9 1.99095023,5.4 1.99095023,8.5 L1.99095023,14 L-2.13162821e-14,16 L-2.13162821e-14,17 L16.9230769,17 L16.9230769,16 L14.9321267,14 Z M13.8461538,15.6538462 L3.07692308,15.6538462 L3.07692308,8.38111888 C3.07692308,5.58391608 5.47008547,3.34615385 8.46153846,3.34615385 C11.4529915,3.34615385 13.8461538,5.58391608 13.8461538,8.38111888 L13.8461538,15.6538462 Z" id="noti" fill="#215EFF" fill-rule="nonzero"></path>
    </g>
</svg>