<?xml version="1.0" encoding="UTF-8"?>
<svg width="40px" height="40px" viewBox="0 0 40 40" version="1.1" xmlns="http://www.w3.org/2000/svg" xmlns:xlink="http://www.w3.org/1999/xlink">
    <!-- Generator: Sketch 55.2 (78181) - https://sketchapp.com -->
    <desc>Created with Sketch.</desc>
    <g id="Page-1" stroke="none" stroke-width="1" fill="none" fill-rule="evenodd">
        <g id="2.3.2a-SA_cntnt_rpo_MASTER-COVER" transform="translate(-755.000000, -146.000000)">
            <g id="noun_Gear_2434677" transform="translate(755.000000, 146.000000)">
                <g id="Group-8">
                    <path d="M27.6631579,18.7270811 L26.4168421,18.5922023 C25.9452632,18.5416228 25.5578947,18.2212856 25.3726316,17.7829294 C25.3726316,17.7829294 25.3726316,17.7660695 25.3726316,17.7660695 C25.1873684,17.3277134 25.2378947,16.8219178 25.5410526,16.4678609 L26.3326316,15.5068493 C26.4505263,15.3551106 26.4505263,15.1359326 26.2989474,15.0010537 L25.0189474,13.719705 C24.8842105,13.5848261 24.6652632,13.5679663 24.5136842,13.6859852 L23.5536842,14.4615385 C23.1831579,14.7650158 22.6778947,14.8155954 22.24,14.630137 C22.24,14.630137 22.2231579,14.630137 22.2231579,14.630137 C21.7852632,14.4446786 21.4652632,14.056902 21.4147368,13.5848261 L21.28,12.337197 C21.2631579,12.1517387 21.0947368,12 20.9094737,12 L19.0905263,12 C18.9052632,12 18.7368421,12.1517387 18.72,12.337197 L18.5852632,13.5848261 C18.5347368,14.056902 18.2147368,14.4446786 17.7768421,14.630137 C17.7768421,14.630137 17.76,14.630137 17.76,14.630137 C17.3221053,14.8155954 16.8168421,14.7650158 16.4463158,14.4615385 L15.4863158,13.6859852 C15.3347368,13.5679663 15.1157895,13.5679663 14.9810526,13.719705 L13.7010526,15.0010537 C13.5663158,15.1359326 13.5494737,15.3551106 13.6673684,15.5068493 L14.4589474,16.4678609 C14.7621053,16.8387777 14.8126316,17.3277134 14.6273684,17.7660695 C14.6273684,17.7660695 14.6273684,17.7829294 14.6273684,17.7829294 C14.4421053,18.2212856 14.0547368,18.5416228 13.5831579,18.5922023 L12.3368421,18.7270811 C12.1515789,18.743941 12,18.9125395 12,19.0979979 L12,20.918862 C12,21.1043203 12.1515789,21.2729189 12.3368421,21.2897787 L13.5831579,21.4246575 C14.0547368,21.4752371 14.4421053,21.7955743 14.6273684,22.2339305 C14.6273684,22.2339305 14.6273684,22.2507903 14.6273684,22.2507903 C14.8126316,22.6891465 14.7621053,23.194942 14.4589474,23.5489989 L13.6673684,24.5100105 C13.5494737,24.6617492 13.5494737,24.8809273 13.7010526,25.0158061 L14.9810526,26.2971549 C15.1157895,26.4320337 15.3347368,26.4488936 15.4863158,26.3308746 L16.4463158,25.5384615 C16.8168421,25.2349842 17.3052632,25.1844046 17.7431579,25.369863 C17.7431579,25.369863 17.76,25.369863 17.76,25.369863 C18.1978947,25.5553214 18.5178947,25.943098 18.5684211,26.4151739 L18.7031579,27.662803 C18.72,27.8482613 18.8884211,28 19.0736842,28 L20.8926316,28 C21.0778947,28 21.2463158,27.8482613 21.2631579,27.662803 L21.3978947,26.4151739 C21.4484211,25.943098 21.7684211,25.5553214 22.2063158,25.369863 C22.2063158,25.369863 22.2231579,25.369863 22.2231579,25.369863 C22.6610526,25.1844046 23.1663158,25.2349842 23.52,25.5384615 L24.48,26.3308746 C24.6315789,26.4488936 24.8505263,26.4488936 24.9852632,26.2971549 L26.2652632,25.0158061 C26.4,24.8809273 26.4168421,24.6617492 26.2989474,24.5100105 L25.5410526,23.5489989 C25.2378947,23.1780822 25.1873684,22.6891465 25.3726316,22.2507903 C25.3726316,22.2507903 25.3726316,22.2339305 25.3726316,22.2339305 C25.5578947,21.7955743 25.9452632,21.4752371 26.4168421,21.4246575 L27.6631579,21.2897787 C27.8484211,21.2729189 28,21.1043203 28,20.918862 L28,19.0979979 C28,18.9125395 27.8484211,18.743941 27.6631579,18.7270811 Z M20,22.9090909 C18.3955923,22.9090909 17.0909091,21.6044077 17.0909091,20 C17.0909091,18.3955923 18.3955923,17.0909091 20,17.0909091 C21.6044077,17.0909091 22.9090909,18.3955923 22.9090909,20 C22.9090909,21.6044077 21.6044077,22.9090909 20,22.9090909 Z" id="Shape" fill="#636363" fill-rule="nonzero"></path>
                    <g id="secondary-button" stroke="#636363">
                        <rect id="Rectangle-Copy-4" x="0.5" y="0.5" width="39" height="39" rx="4"></rect>
                    </g>
                </g>
            </g>
        </g>
    </g>
</svg>