<?xml version="1.0" encoding="UTF-8"?>
<svg width="23px" height="14px" viewBox="0 0 23 14" version="1.1" xmlns="http://www.w3.org/2000/svg" xmlns:xlink="http://www.w3.org/1999/xlink">
    <!-- Generator: Sketch 55.2 (78181) - https://sketchapp.com -->
    <title>Preview</title>
    <desc>Created with Sketch.</desc>
    <g id="Page-2" stroke="none" stroke-width="1" fill="none" fill-rule="evenodd">
        <g id="icon-preview-copy" fill="#636363" fill-rule="nonzero">
            <g id="View-Copy">
                <path d="M22.8942134,6.54146664 C22.689923,6.27431028 17.8223727,0 11.6056307,0 C5.38888875,0 0.521115146,6.27431028 0.317048115,6.54121046 C0.123566307,6.79466101 0.123566307,7.13841614 0.317048115,7.39186669 C0.521115146,7.65902305 5.38888875,13.9333333 11.6056307,13.9333333 C17.8223727,13.9333333 22.689923,7.65898035 22.8942134,7.39208018 C23.0879631,7.13867232 23.0879631,6.79466101 22.8942134,6.54146664 Z M11.6056307,12.4919614 C7.02633797,12.4919614 3.06018423,8.32757575 1.88611769,6.96617565 C3.05866568,5.60358003 7.01651202,1.44137195 11.6056307,1.44137195 C16.1847002,1.44137195 20.1505859,5.60503173 21.3251438,6.96715768 C20.1525958,8.32971061 16.1947494,12.4919614 11.6056307,12.4919614 Z" id="Shape"></path>
                <path d="M11.821955,2.53333333 C9.47483337,2.53333333 7.56521739,4.41289523 7.56521739,6.72307717 C7.56521739,9.0332591 9.47483337,10.912821 11.821955,10.912821 C14.1690766,10.912821 16.0786926,9.0332591 16.0786926,6.72307717 C16.0786926,4.41289523 14.1690766,2.53333333 11.821955,2.53333333 Z M11.821955,9.51621214 C10.2571232,9.51621214 8.98415794,8.26323982 8.98415794,6.72307717 C8.98415794,5.18291451 10.2571652,3.92994219 11.821955,3.92994219 C13.3867447,3.92994219 14.659752,5.18291451 14.659752,6.72307717 C14.659752,8.26323982 13.3867868,9.51621214 11.821955,9.51621214 Z" id="Shape"></path>
            </g>
        </g>
    </g>
</svg>