<?xml version="1.0" encoding="UTF-8"?>
<svg width="23px" height="15px" viewBox="0 0 23 15" version="1.1" xmlns="http://www.w3.org/2000/svg" xmlns:xlink="http://www.w3.org/1999/xlink">
    <!-- Generator: Sketch 54.1 (76490) - https://sketchapp.com -->
    <desc>Created with Sketch.</desc>
    <g id="View_Disable" stroke="none" stroke-width="1" fill="none" fill-rule="evenodd" opacity="0.739792597">
        <g id="View" transform="translate(4.000000, -1.500000)"></g>
        <g id="View-Copy" transform="translate(2.000000, 0.000000)">
            <path d="M18.1574796,7.16431577 C17.9954562,6.95340285 14.1349853,2 9.20446575,2 C4.27394625,2 0.413298219,6.95340285 0.251451953,7.16411352 C0.0980008642,7.36420606 0.0980008642,7.63559169 0.251451953,7.83568423 C0.413298219,8.04659715 4.27394625,13 9.20446575,13 C14.1349853,13 17.9954562,8.04656344 18.1574796,7.83585277 C18.3111432,7.63579394 18.3111432,7.36420606 18.1574796,7.16431577 Z M9.20446575,11.8620748 C5.57261287,11.8620748 2.42704267,8.57440191 1.49588644,7.49961235 C2.42583829,6.42387897 5.56481988,3.13792522 9.20446575,3.13792522 C12.8361415,3.13792522 15.9814992,6.42502505 16.9130451,7.50038765 C15.9830932,8.57608732 12.8441116,11.8620748 9.20446575,11.8620748 Z" id="Shape" fill="#8B8B8B" fill-rule="nonzero"></path>
            <path d="M9.37603325,4 C7.51452302,4 6,5.48386466 6,7.3076925 C6,9.13152034 7.51452302,10.615385 9.37603325,10.615385 C11.2375435,10.615385 12.7520665,9.13152034 12.7520665,7.3076925 C12.7520665,5.48386466 11.2375435,4 9.37603325,4 Z M9.37603325,9.51279906 C8.13495976,9.51279906 7.12536664,8.52361039 7.12536664,7.3076925 C7.12536664,6.09177461 8.1349931,5.10258594 9.37603325,5.10258594 C10.6170734,5.10258594 11.6266999,6.09177461 11.6266999,7.3076925 C11.6266999,8.52361039 10.6171067,9.51279906 9.37603325,9.51279906 Z" id="Shape" fill="#8B8B8B" fill-rule="nonzero"></path>
            <path d="M15.5882353,1 L2,14" id="Line-2" stroke="#8B8B8B" stroke-width="2" stroke-linecap="square"></path>
            <path d="M18,0 L1,16" id="Line-2-Copy" stroke="#FFFFFF" stroke-width="1.5" stroke-linecap="square"></path>
        </g>
    </g>
</svg>