<?xml version="1.0" encoding="UTF-8"?>
<svg width="7px" height="12px" viewBox="0 0 7 12" version="1.1" xmlns="http://www.w3.org/2000/svg" xmlns:xlink="http://www.w3.org/1999/xlink">
    <!-- Generator: Sketch 54.1 (76490) - https://sketchapp.com -->
    <desc>Created with Sketch.</desc>
    <g id="Page-1" stroke="none" stroke-width="1" fill="none" fill-rule="evenodd">
        <g id="4.4c–-User-–-Library-–-Default-Overlay-option-2-Copy" transform="translate(-924.000000, -535.000000)" fill="#636363" fill-rule="nonzero">
            <g id="Group-5" transform="translate(117.000000, 136.000000)">
                <g id="Group-8" transform="translate(28.000000, 38.000000)">
                    <g id="blake-barlow-1499548-unsplash" transform="translate(277.000000, 98.000000)">
                        <g id="Group-4" transform="translate(-0.000000, 0.000000)">
                            <path d="M502.284023,269.247217 L507.225957,273.814552 C507.620441,274.178736 508.272988,274.190236 508.683461,273.840238 C509.093934,273.490241 509.106896,272.911282 508.712412,272.547098 C508.449423,272.304309 507.031617,270.993106 504.458994,268.61349 C507.031617,266.23387 508.449423,264.922665 508.712412,264.679876 C509.106896,264.315691 509.093934,263.736733 508.683461,263.386735 C508.272988,263.036738 507.620441,263.048238 507.225957,263.412422 L502.284023,267.979756 C502.09147,268.159151 501.989285,268.400233 502.000891,268.647746 C502.009248,268.871608 502.110008,269.084945 502.284023,269.247217 Z" id="right-arrow" transform="translate(505.500000, 268.613487) rotate(-180.000000) translate(-505.500000, -268.613487) "></path>
                        </g>
                    </g>
                </g>
            </g>
        </g>
    </g>
</svg>