<?xml version="1.0" encoding="UTF-8"?>
<svg width="8px" height="14px" viewBox="0 0 8 14" version="1.1" xmlns="http://www.w3.org/2000/svg" xmlns:xlink="http://www.w3.org/1999/xlink">
    <!-- Generator: Sketch 54.1 (76490) - https://sketchapp.com -->
    <desc>Created with Sketch.</desc>
    <g id="Page-1" stroke="none" stroke-width="1" fill="none" fill-rule="evenodd">
        <g id="white-copy" transform="translate(-933.000000, -231.000000)" fill="#636363" fill-rule="nonzero">
            <g id="Group-2" transform="translate(933.000000, 231.000000)">
                <g id="noun_Arrow_2271217-Copy" transform="translate(4.000000, 7.000000) scale(-1, 1) translate(-4.000000, -7.000000) ">
                    <g id="Group">
                        <path d="M0.325165882,7.76460656 L5.97221059,13.5023115 C6.4229789,13.9598169 7.16863022,13.9742642 7.63766941,13.5345803 C8.10670861,13.0948965 8.12152008,12.3675809 7.67075176,11.9100754 C7.37023955,11.6050718 5.7501423,9.95787615 2.81046,6.96848852 C5.7501423,3.97909478 7.37023955,2.33189609 7.67075176,2.02689246 C8.12152008,1.56938702 8.10670861,0.84207139 7.63766941,0.402387541 C7.16863022,-0.0372963076 6.4229789,-0.0228490502 5.97221059,0.434656393 L0.325165882,6.17236131 C0.105138903,6.39772518 -0.0116253129,6.70058438 0.00163647059,7.01152131 C0.0111855377,7.29274758 0.126321733,7.56075218 0.325165882,7.76460656 Z" id="Path"></path>
                    </g>
                </g>
            </g>
        </g>
    </g>
</svg>