<?xml version="1.0" encoding="UTF-8"?>
<svg width="20px" height="20px" viewBox="0 0 20 20" version="1.1" xmlns="http://www.w3.org/2000/svg" xmlns:xlink="http://www.w3.org/1999/xlink">
    <!-- Generator: Sketch 55.2 (78181) - https://sketchapp.com -->
    <title>Save</title>
    <desc>Created with Sketch.</desc>
    <g id="Page-2" stroke="none" stroke-width="1" fill="none" fill-rule="evenodd" stroke-linecap="square">
        <g id="icon-save-copy" transform="translate(1.000000, 1.000000)" stroke="#636363">
            <g id="save">
                <path d="M14.2928932,0.29289322 L17.1213203,3.12132034 C17.6839295,3.68392948 18,4.44699122 18,5.24264069 L18,17 C18,17.5522847 17.5522847,18 17,18 L1,18 C0.44771525,18 0,17.5522847 0,17 L0,1 C0,0.44771525 0.44771525,0 1,0 L13.5857864,0 C13.8510029,0 14.1053568,0.10535684 14.2928932,0.29289322 Z" id="Path"></path>
                <rect id="Rectangle" x="4" y="10" width="10" height="8"></rect>
                <path d="M5,0 L13,0 L13,4 C13,4.55228475 12.5522847,5 12,5 L6,5 C5.44771525,5 5,4.55228475 5,4 L5,0 Z" id="Rectangle"></path>
            </g>
            <path d="M7.5,1.5 L7.5,3.08576551" id="Line-5"></path>
        </g>
    </g>
</svg>