<?xml version="1.0" encoding="UTF-8"?>
<svg width="47px" height="40px" viewBox="0 0 47 40" version="1.1" xmlns="http://www.w3.org/2000/svg" xmlns:xlink="http://www.w3.org/1999/xlink">
    <!-- Generator: Sketch 55.2 (78181) - https://sketchapp.com -->
    <title>Save</title>
    <desc>Created with Sketch.</desc>
    <g id="Page-2" stroke="none" stroke-width="1" fill="none" fill-rule="evenodd">
        <g id="icon/save" stroke="#636363">
            <g id="Group-9">
                <g id="secondary-button-copy-2">
                    <rect id="Rectangle-Copy-4" x="0.5" y="0.5" width="46" height="39" rx="4"></rect>
                </g>
            </g>
            <g id="save" transform="translate(15.000000, 11.000000)" stroke-linecap="square">
                <path d="M14.2928932,0.29289322 L17.1213203,3.12132034 C17.6839295,3.68392948 18,4.44699122 18,5.24264069 L18,17 C18,17.5522847 17.5522847,18 17,18 L1,18 C0.44771525,18 0,17.5522847 0,17 L0,1 C0,0.44771525 0.44771525,0 1,0 L13.5857864,0 C13.8510029,0 14.1053568,0.10535684 14.2928932,0.29289322 Z" id="Path"></path>
                <rect id="Rectangle" x="4" y="10" width="10" height="8"></rect>
                <path d="M5,0 L13,0 L13,4 C13,4.55228475 12.5522847,5 12,5 L6,5 C5.44771525,5 5,4.55228475 5,4 L5,0 Z" id="Rectangle"></path>
            </g>
            <path d="M22.5,12.5 L22.5,14.0857655" id="Line-5" stroke-linecap="square"></path>
        </g>
    </g>
</svg>