<?xml version="1.0" encoding="UTF-8"?>
<svg width="14px" height="14px" viewBox="0 0 14 14" version="1.1" xmlns="http://www.w3.org/2000/svg" xmlns:xlink="http://www.w3.org/1999/xlink">
    <!-- Generator: Sketch 54.1 (76490) - https://sketchapp.com -->
    <title>Search</title>
    <desc>Created with Sketch.</desc>
    <g id="Page-1" stroke="none" stroke-width="1" fill="none" fill-rule="evenodd">
        <g id="System-Admin" transform="translate(-447.000000, -55.000000)" fill="#636363">
            <path d="M457.007318,60.195472 L456.371755,60.195472 L456.150829,60.4147847 C456.931275,61.3248528 457.405946,62.5046595 457.405946,63.7973243 C457.405946,66.6708021 455.076615,69 452.202973,69 C449.329331,69 447,66.6708021 447,63.7973243 C447,60.9238465 449.329331,58.5946487 452.202973,58.5946487 C453.495712,58.5946487 454.674786,59.0684924 455.584906,59.8480933 L455.805832,59.6287805 L455.805832,58.9948545 L459.806518,55 L461,56.1934138 L457.007318,60.195472 L457.007318,60.195472 Z M452.090909,60.0909091 C449.981576,60.0909091 448.272727,61.7997576 448.272727,63.9090909 C448.272727,66.0175758 449.981576,67.7272727 452.090909,67.7272727 C454.199394,67.7272727 455.909091,66.0175758 455.909091,63.9090909 C455.909091,61.7997576 454.199394,60.0909091 452.090909,60.0909091 L452.090909,60.0909091 Z" id="Shape" transform="translate(454.000000, 62.000000) scale(-1, -1) translate(-454.000000, -62.000000) "></path>
        </g>
    </g>
</svg>