<?xml version="1.0" encoding="UTF-8"?>
<svg width="13px" height="16px" viewBox="0 0 13 16" version="1.1" xmlns="http://www.w3.org/2000/svg" xmlns:xlink="http://www.w3.org/1999/xlink">
    <!-- Generator: Sketch 55.2 (78181) - https://sketchapp.com -->
    <title>Select</title>
    <desc>Created with Sketch.</desc>
    <g id="Page-2" stroke="none" stroke-width="1" fill="none" fill-rule="evenodd" opacity="0.73">
        <g id="rate" fill="#FFFFFF" fill-rule="nonzero">
            <path d="M11.6315705,4.66665625 C12.3862642,4.66665625 13,5.26465625 13,6 L13,11.6666562 C13,14.056 11.0048454,16 8.5526282,16 C7.13769385,16 5.80688519,15.4633437 4.80725525,14.4886563 L0.383167955,10.178 C0.13614698,9.93734375 0,9.618 0,9.27734375 C0,8.57134375 0.585704629,8 1.30685065,8 C1.62362891,8 1.94111276,8.07265625 2.22437545,8.2106875 L4.10525641,9.12734375 L4.10525641,1.33334375 C4.10525641,0.598 4.71899224,0 5.4736859,0 C6.22837956,0 6.84211539,0.598 6.84211539,1.33334375 L6.84211539,3.5126875 C7.04327296,3.3986875 7.27727257,3.33334375 7.5263141,3.33334375 C8.1222498,3.33334375 8.63062807,3.7066875 8.81809076,4.22534375 C9.03566935,4.08334375 9.29773224,4 9.5789423,4 C10.174878,4 10.6832563,4.37334375 10.870719,4.892 C11.0882976,4.75 11.3503604,4.66665625 11.6315705,4.66665625 Z M12.2302841,11.6849316 L12.2307482,11.6941453 L12.2307482,6.02747291 C12.2307482,5.66015936 12.0092733,5.33333617 11.6315884,5.33333617 C11.2539035,5.33333617 11.0512975,5.63264952 11.0512975,5.99999432 L11.0512975,7.66668655 C11.0512975,7.85068708 10.7941132,8.00003125 10.6052707,8.00003125 C10.4164283,8.00003125 10.1347528,7.85068708 10.1347528,7.66668655 L10.1347528,5.33333617 C10.1347528,4.96602263 9.95663793,4.66667803 9.57895303,4.66667803 C9.20126812,4.66667803 9.01288115,4.96599138 9.01288115,5.33333617 L9.01288115,7.66668655 C9.01288115,7.85068708 8.7414778,8.00003125 8.55263535,8.00003125 C8.3637929,8.00003125 8.10053035,7.85068708 8.10053035,7.66668655 L8.10053035,4.66667803 C8.10053035,4.29936449 7.90400258,4.00001989 7.52631768,4.00001989 C7.14863277,4.00001989 6.95602901,4.29933324 6.95602901,4.66667803 L6.95602901,7.66668655 C6.95602901,7.85068708 6.68884245,8.00003125 6.5,8.00003125 C6.31115755,8.00003125 6.09286932,7.84514744 6.09286932,7.66114691 L6.09286932,1.32778517 C6.09286932,0.960471627 5.85136723,0.666666667 5.47368232,0.666666667 C5.09599742,0.666666667 4.91420505,0.965366836 4.91420505,1.33271163 L4.93167325,9.99529686 C4.93167325,10.1106409 4.87009419,10.217985 4.76951506,10.2786414 C4.66960945,10.3392978 4.54305165,10.3446416 4.43698813,10.2932977 L2.06346583,8.93892299 C1.87394985,8.84692273 1.66320193,8.79826635 1.45178049,8.79826635 C1.10831687,8.79826635 0.82915846,9.07026712 0.82915846,9.40492432 C0.82915846,9.57092479 0.89416927,9.72358147 1.01184301,9.8375818 L5.31427142,13.8085092 C6.18458881,14.6578242 7.34227515,15.1251692 8.57452988,15.1251692 C10.6497442,15.1251692 12.2302841,13.7069373 12.2302841,11.6849316 Z" id="Shape"></path>
        </g>
    </g>
</svg>