<?xml version="1.0" encoding="UTF-8"?>
<svg width="16px" height="18px" viewBox="0 0 16 18" version="1.1" xmlns="http://www.w3.org/2000/svg" xmlns:xlink="http://www.w3.org/1999/xlink">
    <!-- Generator: Sketch 54.1 (76490) - https://sketchapp.com -->
    <title>Share</title>
    <desc>Created with Sketch.</desc>
    <g id="Page-1" stroke="none" stroke-width="1" fill="none" fill-rule="evenodd" opacity="0.5">
        <g id="white-copy" transform="translate(-814.000000, -546.000000)" fill="#000000" fill-rule="nonzero">
            <g id="Group-11" transform="translate(814.000000, 433.000000)">
                <g id="share" transform="translate(0.000000, 113.000000)">
                    <path d="M12.9621145,10.9907324 C11.9859031,10.9907324 11.1154185,11.4539769 10.5585903,12.1699004 L5.89603524,9.5764326 C6.00528634,9.26409345 6.06519824,8.9271883 6.06519824,8.57975486 C6.06519824,8.228812 6.00528634,7.89541627 5.89251101,7.57956769 L10.5515419,4.98960934 C11.1048458,5.70904221 11.9788546,6.17579623 12.9585903,6.17579623 C14.6290749,6.17579623 15.9929515,4.82115676 15.9929515,3.15417815 C15.9929515,1.48719953 14.6325991,0.132560066 12.9585903,0.132560066 C11.2845815,0.132560066 9.92422907,1.48719953 9.92422907,3.15417815 C9.92422907,3.50512101 9.98414097,3.84202617 10.0969163,4.15436532 L5.44140969,6.74432367 C4.88810573,6.02138137 4.01409692,5.55813678 3.03436123,5.55813678 C1.36387665,5.55813678 0,6.91277625 0,8.57975486 C0,10.2467335 1.36387665,11.6013729 3.03788546,11.6013729 C4.01762115,11.6013729 4.89162996,11.1346189 5.44845815,10.4116766 L10.107489,13.0051444 C9.99471366,13.320993 9.93127753,13.6614076 9.93127753,14.0123504 C9.93127753,15.6758196 11.29163,17.0339685 12.9656388,17.0339685 C14.6396476,17.0339685 16,15.6793291 16,14.0123504 C16,12.3453718 14.6361233,10.9907324 12.9621145,10.9907324 Z M12.9621145,1.08361523 C14.1110132,1.08361523 15.0449339,2.01361383 15.0449339,3.15768758 C15.0449339,4.30176132 14.1110132,5.23175992 12.9621145,5.23175992 C11.8132159,5.23175992 10.8792952,4.30176132 10.8792952,3.15768758 C10.8792952,2.01361383 11.8167401,1.08361523 12.9621145,1.08361523 Z M3.03788546,10.6538272 C1.88898678,10.6538272 0.955066079,9.72382861 0.955066079,8.57975486 C0.955066079,7.43568112 1.88898678,6.50568252 3.03788546,6.50568252 C4.18678414,6.50568252 5.12070485,7.43568112 5.12070485,8.57975486 C5.12070485,9.72382861 4.18325991,10.6538272 3.03788546,10.6538272 Z M12.9621145,16.0829133 C11.8132159,16.0829133 10.8792952,15.1529148 10.8792952,14.008841 C10.8792952,12.8647673 11.8132159,11.9347687 12.9621145,11.9347687 C14.1110132,11.9347687 15.0449339,12.8647673 15.0449339,14.008841 C15.0449339,15.1529148 14.1110132,16.0829133 12.9621145,16.0829133 Z" id="Shape"></path>
                </g>
            </g>
        </g>
    </g>
</svg>