<?xml version="1.0" encoding="UTF-8"?>
<svg width="40px" height="17px" viewBox="0 0 40 17" version="1.1" xmlns="http://www.w3.org/2000/svg" xmlns:xlink="http://www.w3.org/1999/xlink">
    <!-- Generator: Sketch 55.2 (78181) - https://sketchapp.com -->
    <desc>Created with Sketch.</desc>
    <g id="Marketing-collateral-genrator" stroke="none" stroke-width="1" fill="none" fill-rule="evenodd">
        <g id="show" transform="translate(-1.000000, 0.000000)" fill="#41ABC1">
            <g id="Group-3">
                <path d="M1,8.49997659 C1,13.1754519 4.90194318,17 9.66297727,17 L32.3370227,17 C37.1016761,17 41,13.1749836 41,8.49997659 C41,3.82498907 37.1016761,0 32.3370227,0 L9.66297727,0 C4.90194318,0 1,3.82452078 1,8.49997659 Z" id="Shape" fill-opacity="0.2"></path>
                <path d="M32.4938449,3.17391304 C35.5187692,3.17391304 38,5.63878711 38,8.66774811 C38,11.6934644 35.5195951,14.173913 32.4938449,14.173913 C29.4648303,14.173913 27,11.6926778 27,8.66774811 C27,5.6395737 29.4656563,3.17391304 32.4938449,3.17391304 Z" id="Path"></path>
                <text id="Show" font-family="MavenPro-Regular, Maven Pro" font-size="7" font-weight="normal">
                    <tspan x="4.672" y="11">SHOW</tspan>
                </text>
            </g>
        </g>
    </g>
</svg>