<?xml version="1.0" encoding="UTF-8"?>
<svg width="14px" height="16px" viewBox="0 0 14 16" version="1.1" xmlns="http://www.w3.org/2000/svg" xmlns:xlink="http://www.w3.org/1999/xlink">
    <!-- Generator: Sketch 55.2 (78181) - https://sketchapp.com -->
    <title>Group 5</title>
    <desc>Created with Sketch.</desc>
    <g id="Page-1" stroke="none" stroke-width="1" fill="none" fill-rule="evenodd">
        <g id="Group-5" transform="translate(0.700000, 0.000000)" fill="#FFFFFF" fill-rule="nonzero">
            <g id="Group-2">
                <g id="noun_sorting_368361-(1)">
                    <path d="M0.211756036,2.80042797 L2.37189157,0.447495392 C2.61834998,0.179039998 2.99528638,0.179039998 3.2417448,0.447495392 L5.40188033,2.80042797 C5.72082651,3.14784083 5.67733385,3.7479176 5.2858999,4.03216448 C4.99594882,4.2374539 4.59001731,4.17428793 4.34355889,3.90583253 L3.53169588,3.02150888 L3.53169588,10.5177107 C3.53169588,10.9598726 3.19825214,11.3230769 2.79232063,11.3230769 C2.38638912,11.3230769 2.05294538,10.9598726 2.05294538,10.5177107 L2.05294538,3.03730037 L1.27007747,3.90583253 C1.02361905,4.17428793 0.632185099,4.2374539 0.327736468,4.03216448 C-0.0636974874,3.7479176 -0.107190149,3.14784083 0.211756036,2.80042797 Z" id="Shape"></path>
                </g>
            </g>
            <g id="Group-2-Copy-2" transform="translate(9.586364, 9.630769) scale(1, -1) translate(-9.586364, -9.630769) translate(6.736364, 3.630769)">
                <g id="noun_sorting_368361-(1)">
                    <path d="M0.211756036,2.80042797 L2.37189157,0.447495392 C2.61834998,0.179039998 2.99528638,0.179039998 3.2417448,0.447495392 L5.40188033,2.80042797 C5.72082651,3.14784083 5.67733385,3.7479176 5.2858999,4.03216448 C4.99594882,4.2374539 4.59001731,4.17428793 4.34355889,3.90583253 L3.53169588,3.02150888 L3.53169588,10.5177107 C3.53169588,10.9598726 3.19825214,11.3230769 2.79232063,11.3230769 C2.38638912,11.3230769 2.05294538,10.9598726 2.05294538,10.5177107 L2.05294538,3.03730037 L1.27007747,3.90583253 C1.02361905,4.17428793 0.632185099,4.2374539 0.327736468,4.03216448 C-0.0636974874,3.7479176 -0.107190149,3.14784083 0.211756036,2.80042797 Z" id="Shape"></path>
                </g>
            </g>
        </g>
    </g>
</svg>