<?xml version="1.0" encoding="UTF-8"?>
<svg width="18px" height="14px" viewBox="0 0 18 14" version="1.1" xmlns="http://www.w3.org/2000/svg" xmlns:xlink="http://www.w3.org/1999/xlink">
    <!-- Generator: Sketch 55.2 (78181) - https://sketchapp.com -->
    <title></title>
    <desc>Created with Sketch.</desc>
    <g id="Page-2" stroke="none" stroke-width="1" fill="none" fill-rule="evenodd">
        <path d="M0.207692308,7.7 C0.0692307692,7.56 0,7.35 0,7.21 C0,7.07 0.0692307692,6.86 0.207692308,6.72 L1.17692308,5.74 C1.45384615,5.46 1.86923077,5.46 2.14615385,5.74 L2.21538462,5.81 L6.02307692,9.94 C6.16153846,10.08 6.36923077,10.08 6.50769231,9.94 L15.7846154,0.21 L15.8538462,0.21 L15.8538462,0.21 C16.1307692,-0.07 16.5461538,-0.07 16.8230769,0.21 L17.7923077,1.19 C18.0692308,1.47 18.0692308,1.89 17.7923077,2.17 L17.7923077,2.17 L6.71538462,13.79 C6.57692308,13.93 6.43846154,14 6.23076923,14 C6.02307692,14 5.88461538,13.93 5.74615385,13.79 L0.346153846,7.91 L0.207692308,7.7 Z" id="icon-tick" fill="#FFFFFF" fill-rule="nonzero"></path>
    </g>
</svg>