<?xml version="1.0" encoding="UTF-8"?>
<svg width="27px" height="20px" viewBox="0 0 27 20" version="1.1" xmlns="http://www.w3.org/2000/svg" xmlns:xlink="http://www.w3.org/1999/xlink">
    <!-- Generator: Sketch 54.1 (76490) - https://sketchapp.com -->
    <title>upload header</title>
    <desc>Created with Sketch.</desc>
    <g id="Symbols" stroke="none" stroke-width="1" fill="none" fill-rule="evenodd">
        <g id="upload-header" transform="translate(0.000000, 0.000000)" fill="#215EFF" fill-rule="nonzero">
            <path d="M20.1830844,6.58554712 C19.9381333,2.9135316 16.8400127,0 13.066965,0 C9.29293928,0 6.19428519,2.91476291 5.95066773,6.58809768 C2.57647695,7.0079727 0,9.85149582 0,13.2634421 C0,16.9779377 3.05499855,20 6.81017503,20 L17.1668513,20 C17.461415,20 17.7003202,19.7636774 17.7003202,19.4722978 C17.7003202,19.1809183 17.461415,18.9445957 17.1668513,18.9445957 L6.81017503,18.9445957 C3.64332583,18.9445077 1.06693779,16.3959701 1.06693779,13.2634421 C1.06693779,10.2489435 3.45269961,7.76056394 6.49827355,7.59847142 C6.78136771,7.58343191 7.00311295,7.35194656 7.00311295,7.07156081 C7.00311295,7.06109472 7.00284621,7.05080453 7.00222383,7.04033843 C7.01022587,3.73903369 9.72771643,1.05540433 13.066965,1.05540433 C16.406747,1.05540433 19.1246821,3.73947344 19.1317061,7.04156974 C19.1312616,7.05177198 19.1309059,7.06250192 19.1309059,7.07050541 C19.1309059,7.35159476 19.3536292,7.58334396 19.6373458,7.59750397 C22.6932334,7.75062555 25.0869084,10.2393569 25.0869084,13.2633542 C25.0869084,14.9806729 24.3135563,16.5879658 22.9651247,17.6730094 C22.7365333,17.8569136 22.7020357,18.189278 22.8879496,18.4153104 C23.0738635,18.6414308 23.40986,18.6755555 23.6383625,18.4916513 C25.2369909,17.2052893 26.1538462,15.2996689 26.1538462,13.2632662 C26.1538462,9.84085382 23.5686559,6.9962753 20.1830844,6.58554712 Z" id="Path"></path>
            <path d="M12.3076923,9.7522168 L12.3076923,16.4016293 C12.3076923,16.6895553 12.4799359,16.9230769 12.6923077,16.9230769 C12.9046795,16.9230769 13.0769231,16.6895553 13.0769231,16.4016293 L13.0769231,9.7522168 C13.0769231,9.46429084 12.9046795,9.23076923 12.6923077,9.23076923 C12.4799359,9.23076923 12.3076923,9.46429084 12.3076923,9.7522168 Z" id="Path"></path>
            <path d="M15.6386733,10.76921 C15.770552,10.76921 15.9023449,10.7205482 16.0029712,10.6233075 C16.2041378,10.4287432 16.2041378,10.1132716 16.0029712,9.91870732 L13.0565627,7.06900017 C12.855396,6.87443584 12.5291335,6.87443584 12.3280527,7.06900017 L9.3816442,9.91870732 C9.18047757,10.1132716 9.18047757,10.4287432 9.3816442,10.6233075 C9.58281083,10.8178718 9.90907339,10.8178718 10.1101542,10.6233075 L12.6922648,8.12594199 L15.2743754,10.6233075 C15.3750016,10.7205482 15.5068804,10.76921 15.6386733,10.76921 Z" id="Path"></path>
        </g>
    </g>
</svg>