<?xml version="1.0" encoding="UTF-8"?>
<svg width="12px" height="15px" viewBox="0 0 12 15" version="1.1" xmlns="http://www.w3.org/2000/svg" xmlns:xlink="http://www.w3.org/1999/xlink">
    <!-- Generator: Sketch 55.2 (78181) - https://sketchapp.com -->
    <desc>Created with Sketch.</desc>
    <g id="Page-1" stroke="none" stroke-width="1" fill="none" fill-rule="evenodd" opacity="0.54">
        <g id="Group-5-Copy-3">
            <g id="png-file--copy" fill="#000000" fill-rule="nonzero">
                <path d="M2.4,9.7077704 C2.4,9.5428157 2.24539416,9.44444444 1.97213732,9.44444444 C1.8605658,9.44444444 1.78500488,9.45258196 1.74545455,9.46036926 L1.74545455,9.98961694 C1.79205649,9.99740423 1.84958424,10 1.92865704,10 C2.2198913,10 2.4,9.89124568 2.4,9.7077704 Z" id="Path"></path>
                <path d="M8.27412057,0 L2.35415563,0 C1.48926956,0 0.785370725,0.716836846 0.785370725,1.59647944 L0.785370725,7.49998444 L0.632117964,7.49998444 C0.282812946,7.49998444 0,7.78779564 0,8.14333626 L0,12.0448252 C0,12.4003348 0.282812946,12.6881148 0.632117964,12.6881148 L0.785370725,12.6881148 L0.785370725,13.4035206 C0.785370725,14.2841276 1.48926956,15 2.35415563,15 L10.4316431,15 C11.29604,15 12,14.2840965 12,13.4035206 L12,3.77844356 L8.27412057,0 Z M1.16934333,8.84741745 C1.35435943,8.81555941 1.61454979,8.79154144 1.98167774,8.79154144 C2.35265764,8.79154144 2.61669996,8.86356424 2.79453186,9.00823207 C2.964079,9.14456205 3.0782925,9.36959051 3.0782925,9.63441041 C3.0782925,9.89916808 2.99156239,10.1242588 2.8339991,10.2767355 C2.62874496,10.4733593 2.32471569,10.5616223 1.97012188,10.5616223 C1.89109567,10.5616223 1.81980394,10.55764 1.76483716,10.5498311 L1.76483716,11.5172699 L1.16934333,11.5172699 L1.16934333,8.84741745 Z M10.4316431,14.0222944 L2.35415563,14.0222944 C2.01928015,14.0222944 1.74655566,13.7447811 1.74655566,13.4035206 L1.74655566,12.6881148 L9.27633188,12.6881148 C9.6256369,12.6881148 9.90844984,12.4003348 9.90844984,12.0448252 L9.90844984,8.14333626 C9.90844984,7.78779564 9.6256369,7.49998444 9.27633188,7.49998444 L1.74655566,7.49998444 L1.74655566,1.59647944 C1.74655566,1.25618338 2.01928015,0.978670052 2.35415563,0.978670052 L7.9147271,0.972758893 L7.9147271,3.06446896 C7.9147271,3.67543385 8.40184649,4.17162893 9.00265968,4.17162893 L11.0161008,4.16574888 L11.0387539,13.4034895 C11.0387539,13.7447811 10.7665491,14.0222944 10.4316431,14.0222944 Z M5.11148249,9.60249015 L5.11148249,8.81160827 L5.66368769,8.81160827 L5.66368769,11.5172388 L5.032548,11.5172388 L4.46447642,10.4733282 C4.30645457,10.1845215 4.13296376,9.83489201 4.00291444,9.51814726 L3.99129744,9.52206729 C4.0067664,9.87907014 4.01495944,10.2604643 4.01495944,10.7023078 L4.01495944,11.5172388 L3.46229568,11.5172388 L3.46229568,8.81160827 L4.16478824,8.81160827 L4.7169323,9.80303398 C4.87501529,10.0879207 5.032548,10.4252612 5.15104145,10.7302458 L5.16262789,10.7302458 C5.1230995,10.3733363 5.11148249,10.0074978 5.11148249,9.60249015 Z M7.53072392,11.0514084 C7.66893572,11.0514084 7.77932784,11.0352305 7.82652957,11.0112436 L7.82652957,10.4453902 L7.41651041,10.4453902 L7.41651041,9.96776863 L8.40667672,9.96776863 L8.40667672,11.3926689 C8.22117148,11.4569139 7.86990992,11.5451457 7.51913749,11.5451457 C7.03397465,11.5451457 6.68274365,11.4206069 6.43796111,11.1798672 C6.19369828,10.9469676 6.05924673,10.593947 6.06358782,10.1962816 C6.06743977,9.29703882 6.71022704,8.78317249 7.58229731,8.78317249 C7.92536583,8.78317249 8.18983614,8.85133748 8.3199466,8.91604911 L8.19371866,9.40536858 C8.04774182,9.34118584 7.86608853,9.28919876 7.57410427,9.28919876 C7.07350304,9.28919876 6.69475808,9.57800551 6.69475808,10.1644235 C6.69472751,10.7224369 7.03776546,11.0514084 7.53072392,11.0514084 Z" id="Shape"></path>
                <path d="M8.27412057,0 L2.35415563,0 C1.48926956,0 0.785370725,0.716836846 0.785370725,1.59647944 L0.785370725,7.49998444 L0.632117964,7.49998444 C0.282812946,7.49998444 0,7.78779564 0,8.14333626 L0,12.0448252 C0,12.4003348 0.282812946,12.6881148 0.632117964,12.6881148 L0.785370725,12.6881148 L0.785370725,13.4035206 C0.785370725,14.2841276 1.48926956,15 2.35415563,15 L10.4316431,15 C11.29604,15 12,14.2840965 12,13.4035206 L12,3.77844356 L8.27412057,0 Z M1.16934333,8.84741745 C1.35435943,8.81555941 1.61454979,8.79154144 1.98167774,8.79154144 C2.35265764,8.79154144 2.61669996,8.86356424 2.79453186,9.00823207 C2.964079,9.14456205 3.0782925,9.36959051 3.0782925,9.63441041 C3.0782925,9.89916808 2.99156239,10.1242588 2.8339991,10.2767355 C2.62874496,10.4733593 2.32471569,10.5616223 1.97012188,10.5616223 C1.89109567,10.5616223 1.81980394,10.55764 1.76483716,10.5498311 L1.76483716,11.5172699 L1.16934333,11.5172699 L1.16934333,8.84741745 Z M10.4316431,14.0222944 L2.35415563,14.0222944 C2.01928015,14.0222944 1.74655566,13.7447811 1.74655566,13.4035206 L1.74655566,12.6881148 L9.27633188,12.6881148 C9.6256369,12.6881148 9.90844984,12.4003348 9.90844984,12.0448252 L9.90844984,8.14333626 C9.90844984,7.78779564 9.6256369,7.49998444 9.27633188,7.49998444 L1.74655566,7.49998444 L1.74655566,1.59647944 C1.74655566,1.25618338 2.01928015,0.978670052 2.35415563,0.978670052 L7.9147271,0.972758893 L7.9147271,3.06446896 C7.9147271,3.67543385 8.40184649,4.17162893 9.00265968,4.17162893 L11.0161008,4.16574888 L11.0387539,13.4034895 C11.0387539,13.7447811 10.7665491,14.0222944 10.4316431,14.0222944 Z M5.11148249,9.60249015 L5.11148249,8.81160827 L5.66368769,8.81160827 L5.66368769,11.5172388 L5.032548,11.5172388 L4.46447642,10.4733282 C4.30645457,10.1845215 4.13296376,9.83489201 4.00291444,9.51814726 L3.99129744,9.52206729 C4.0067664,9.87907014 4.01495944,10.2604643 4.01495944,10.7023078 L4.01495944,11.5172388 L3.46229568,11.5172388 L3.46229568,8.81160827 L4.16478824,8.81160827 L4.7169323,9.80303398 C4.87501529,10.0879207 5.032548,10.4252612 5.15104145,10.7302458 L5.16262789,10.7302458 C5.1230995,10.3733363 5.11148249,10.0074978 5.11148249,9.60249015 Z M7.53072392,11.0514084 C7.66893572,11.0514084 7.77932784,11.0352305 7.82652957,11.0112436 L7.82652957,10.4453902 L7.41651041,10.4453902 L7.41651041,9.96776863 L8.40667672,9.96776863 L8.40667672,11.3926689 C8.22117148,11.4569139 7.86990992,11.5451457 7.51913749,11.5451457 C7.03397465,11.5451457 6.68274365,11.4206069 6.43796111,11.1798672 C6.19369828,10.9469676 6.05924673,10.593947 6.06358782,10.1962816 C6.06743977,9.29703882 6.71022704,8.78317249 7.58229731,8.78317249 C7.92536583,8.78317249 8.18983614,8.85133748 8.3199466,8.91604911 L8.19371866,9.40536858 C8.04774182,9.34118584 7.86608853,9.28919876 7.57410427,9.28919876 C7.07350304,9.28919876 6.69475808,9.57800551 6.69475808,10.1644235 C6.69472751,10.7224369 7.03776546,11.0514084 7.53072392,11.0514084 Z" id="Shape-Copy"></path>
            </g>
            <rect id="Rectangle" fill="#000000" x="1" y="8" width="8" height="4"></rect>
            <text id="ZIP" font-family="MavenPro-Bold, Maven Pro" font-size="3" font-weight="bold" letter-spacing="0.699999988" fill="#FFFFFF">
                <tspan x="2" y="11">ZI</tspan>
                <tspan x="6.21399998" y="11">P</tspan>
            </text>
        </g>
    </g>
</svg>